<svg xmlns="http://www.w3.org/2000/svg" width="429" height="171" viewBox="367 224 429 171"><path fill="#009ddc" d="M535.754 302.719c-.164.18 1.125 2.87 1.926 4.734.441-.582 3.09-3.36 3.066-4.113-.02-.91-4.328-.281-4.992-.621M614.418 323.164c.379-3.07.742-6.578.246-9.652-.351-2.196-1.93-3.797-3.332-5.407-1.48 1.625-3.176.43-4.789 1.38-2.074 1.222-3.457 2.476-6 2.687-2.418.2-4.852-.2-7.059-1.219-.824-.379-2.28-1.586-3.195-1.539-1.11.05-2.215.305-3.324.184-2.067-.23-4.258-1.172-5.899-2.446-.601-.468-1.207-1.73-1.949-1.918a3.8 3.8 0 0 1-2.058-1.336 7.8 7.8 0 0 1-1.153-2.03c-.449.394-.98.687-1.574.831-.742.188-1.344 1.45-1.953 1.918-1.64 1.274-3.828 2.215-5.895 2.442-1.109.125-2.218-.125-3.324-.18-.914-.043-2.375 1.16-3.195 1.539-.524.242-1.055.445-1.602.617-.312.422-.695.875-1.015 1.098 0 0-.926-.2-1.45-.563a12 12 0 0 1-.738.07c-.383.325-.933.755-1.3.872 0 0-.587-.465-.907-.871-.015-.004-.035-.004-.05-.004-2.54-.211-3.923-1.469-5.997-2.688-.824-.48-1.664-.41-2.488-.437-.11.605-.324 1.105-.324 1.105-.52-.035-1.035-.922-1.43-1.57a3 3 0 0 1-.547-.477c-1.406 1.61-2.98 3.211-3.336 5.41-.492 3.07-.133 6.579.25 9.649.219 1.797.489 3.586.762 5.375h74.23c.137-.945.278-1.89.395-2.84M534.734 310.18c-.332-1.489-.726-3.2-1.582-4.496-.34.246-1.058.93-1.402 1.18.887 1.19 1.797 2.398 2.984 3.316M460.328 305.242c-1.437-.48-2.793-.836-4.316-.855.578 1.851.578 3.836 1.16 5.687.95-1.234 1.992-3.324 3.156-4.832M534.262 317.547c-.063-1.672.351-3.832-.48-5.356-.872-1.59-2.415-3.086-3.743-4.367-.258.68-.652 1.363-1.242 1.817 0 0-.137-.735-.195-1.739-.676.137-1.34.23-1.989.465-1.508.547-2.945 1.23-4.531 1.524-3.23.597-6.55.367-9.57-.957-1.29-.567-2.164-1.391-3.633-1.332-.254.007-.516.023-.774.035.282 1.207.157 2.175.157 2.175-.707-.19-1.473-1.19-2.055-2.132-.598-.008-1.191-.043-1.777-.164-2.883-.598-5.493-2.215-8.106-3.489-2.09-1.023-2.52-2.93-2.601-4.941a15.4 15.4 0 0 1-3.649 4.328c-1.46 1.188-3.191 1.484-5.012 1.738-1.593.22-2.398.965-3.746 1.707-1.043.575-2.238 1.371-3.507 2.086-.207.465-.457.95-.707 1.223 0 0-.829.016-1.422-.176q-.464.188-.926.328c-.293.38-.668.825-.965 1 0 0-.746-.351-1.137-.695a5 5 0 0 1-.957-.102c-1.507-.336-3.015-.695-4.488-1.152.05.738.004 1.39.004 1.39-1.211-.241-2.14-1.968-2.356-2.398-1.105-.722-2.144-1.758-3.085-2.511-.23.296-.872 1.578-1.301 2.324-.574.992-1.418 1.781-1.938 2.804-1.273 2.512-.617 6.274-.37 8.965.187 2.035.437 4.047.722 6.055h74.75c.453-2.785.738-5.578.629-8.453M442.184 311.988s-.043-.343-.063-.789c0 .285.012.559.031.801zM615.895 304.535c.164.18-.813.414 0 0-.665.34-2.36.762-2.383 1.676-.02.746 1.601 2.246 2.043 2.828.8-1.863 1.793-2.894.34-4.504M696.035 321.367c.055-1.984.09-3.972.074-5.957 0-.535-.207-1.07-.308-1.61-.07-.347-.114-.706-.18-1.058a2 2 0 0 0-.121-.445c-.457-.887-1.117-1.613-1.79-2.356-.19.168-.37.332-.554.493-.343.566-.93 1.449-1.234 1.449-.227 0-.336-.375-.36-.809-.398.215-.812.41-1.218.606-.293.136-.598.246-.88.41-.96.558-1.984.832-3.093.785-.535-.027-1.074-.047-1.61-.07-.507.445-1.073.882-1.515 1.03-.828.274-1.223-1.1-1.34-1.628a4 4 0 0 1-.285-.156c-.644.625-1.433.781-1.433.781-.083-.398.07-1.031.226-1.527-.39-.25-.777-.493-1.172-.743-.039.055-.906-.351-1.558-.609-2.313.168-5.121-.031-6.758-.238a46 46 0 0 1-2.375-.375c-.602.2-1.961.605-2.899.512-.738-.075-.718-.641-.48-1.188a91 91 0 0 1-1.137-.242c-3.012-.645-3.441-4.09-3.441-4.09s-.012-.016-.961-1.602c-.211 1.582-.813 3-2.508 3.832-2.613 1.274-5.223 2.891-8.11 3.489-1.456.3-2.976.14-4.449.082-1.468-.055-2.34.77-3.629 1.336-.656.285-1.324.511-2.003.699.171.129.296.254.343.36.418.94-2.52 1.367-2.52 1.367s-.222-.551-.577-1.227c-.125.012-.25.016-.375.023.191.688-4.438-.265-4.438-.265-1.586-.297-3.027-.977-4.535-1.524-1.02-.37-2.074-.37-3.164-.793.48.188-.32.309 0 0-1.379 1.329-3.074 2.922-3.996 4.618-.836 1.523-.422 3.683-.485 5.355-.078 2.004.043 3.969.27 5.918h76.32c.024-.27.055-.547.07-.816.079-1.274.157-2.543.188-3.817M702.008 308.45c.289-.407.496-.88.699-1.34.137-.298.02-.575-.234-.782-.567-.469-1.133-.933-1.711-1.414-.38.66-.754 1.328-1.145 1.988a6.46 6.46 0 0 0-.926 3.524c.004.156.059.34.153.465.226.304.488.586.761.906.207-.363.368-.715.594-1.02.59-.785 1.235-1.53 1.809-2.328M476.832 255.695s-.91.606-2.227 1.09c-.007.027-.011.047-.027.074.457.168.914.344 1.367.512.52.2.996.457 1.45.746.57-.043 1.257-.055 1.68.063 0 0 .538 1.004.515 1.648q.18.159.367.317c.488.078 1.29.23 1.652.46 0 0 .02.63-.058 1.125.804 1.032 1.383 2.18 2.187 3.301.45.621 1.317 1.227 1.875 1.793q.054.052.114.106c.222-1.387.726-2.094.726-2.094.844.605 1.2 2.062 1.34 3.418.277-.27.598-.512.977-.7 0 0 .437 1.075.55 2.602.66.79 1.258 1.637 1.793 2.52.992 1.637 1.094 3.207 1.223 5.058.133 1.97.7 3.813.68 5.829-.02 1.851.765 2.824 1.289 4.55.265.871.496 1.739.668 2.61.453-.645.925-1.274 1.101-2.004.285-1.168-.625-2.754-.765-3.942-.184-1.59-.059-3.25.015-4.843.156-3.262.602-6.211 2.856-8.75.945-1.067 2.062-1.965 3.183-2.848-.508-.191-.828-.36-.828-.36a9.3 9.3 0 0 1 2.887-1.64c-.402-.563-.695-1.113-.629-1.445l.184-.93s.93.402 1.945 1.16c.504-.89.574-2.18.887-3.086.218-.648.492-1.281.836-1.875.386-.676 1.332-1.336 1.574-2.031.312-.895.832-2.164 1.375-2.57 1.113-.836 2.344-1.536 3.652-2.008 2.223-.805 4.246-2.332 6.258-3.703.402-.723 1.039-1.536 2.058-2.254.938-.66 1.372-.399 1.356.238 4.203-2.117 8.684-2.965 13.445-2.832.473-.375 1.145-.867 1.621-1.023 0 0 1.32.71 1.442 1.332 0 0 1.37-.696 2.011-.711 0 0 .567.797.692 1.285 1.488.125 2.984.152 4.473.304 1.41.145 2.777.516 4.086 1.055.996-.156 2.164-.23 3.542-.172 0 0-.164.758-.878 1.528.34.207.68.422 1.007.648 1.547 1.059 2.93 2.621 4.625 3.43.364.172.723.332 1.082.488a.6.6 0 0 1-.004-.226l.184-.922s2.45 1.047 3.738 2.964c.286.165.575.336.856.524 1.476.984 2.285 2.027 3.226 3.387.48.687.602 1.652 1.137 2.254.887 1.003 1.848 1.949 2.652 3.023 1.43 1.91 2.243 4.25 2.641 6.582.324 1.918-.266 4.848 1.012 6.414.594.727 1.086 1.371 1.508 2.024l.925.511c1.278-1.566.688-4.496 1.012-6.414.043-.254.094-.512.149-.765-.258-.512-.536-1.141-.59-1.575 0 0 .761-.925 1.379-1.12.039-.106.086-.208.132-.313-.117-.457-.324-1.371-.246-1.836 0 0 .953-.434 1.446-.434.12-.18.238-.363.37-.539.805-1.078 1.766-2.02 2.653-3.023.531-.602.656-1.57 1.137-2.258.34-.488.664-.938 1.008-1.36-.067-.37-.11-.757-.067-1.007 0 0 1.024-.465 1.492-.43.246-.2.504-.395.793-.586 1.594-1.062 3.254-1.672 4.946-2.418-.528-.344-.942-.695-.97-.965 0 0 2.712-.828 3.763-1.05.515-.965 1.27-2.145 1.906-2.262 0 0 .008.52-.117 1.16.312-.254.629-.504.949-.723 2.316-1.582 4.96-2.773 7.758-3.058 1.52-.157 3.039-.18 4.55-.313 1.465-.125 2.817-.726 4.297-.828 3.75-.25 7.329.094 10.743 1.137.027-.446.082-.899.195-1.137.137-.3 1.308.617 2.226 1.746 1.856.23 4.028.754 5.094 1.938 0 0-.465.187-1.172.363.106.066.215.121.325.191 2.293 1.489 4.562 3.348 7.101 4.266 1.309.473 2.54 1.172 3.652 2.008.54.406 1.063 1.672 1.375 2.566.243.7 1.184 1.36 1.575 2.031.343.594.617 1.23.836 1.88.363 1.058.398 2.628 1.172 3.484.175-1.555.617-2.746.617-2.746 1.191 1.015 1.785 3.144 2.082 5.109 1.312 1.035 2.648 2.055 3.758 3.3 2.25 2.536 2.699 5.493 2.855 8.755.074 1.59.2 3.25.016 4.84-.114.957-.72 2.171-.801 3.222.02.004.039.016.062.024.575-.657 1.227-1.18 1.684-1.52-.215-2.36-.645-4.293-.215-6.012.332-1.332.922-4.828 1.172-6.359.043-1.723.394-3.356 1.172-4.879.582-1.148 1.254-2.238 2.125-3.187-.188-.387-.543-1.274-.063-1.516.418-.207 1.512-.211 2.184-.188.2-.164.39-.332.555-.523.488-.57 1.132-.875 1.66-1.36.285-.261.672-.44 1.039-.585.808-.317 1.203-.914 1.422-1.73.289-1.079.824-2.028 1.465-2.954.527-.758 1.226-1.34 1.8-2.035.215-.262.364-.59.614-.809.75-.656 1.46-1.332 2.37-1.816.126-.066.259-.11.384-.172-.36-.582-.57-1.226-.086-1.105.582.144 2.414.05 3.234 0 .137-.051.273-.09.406-.149.117-.05.246-.078.332-.152.403-.356.793-.727 1.192-1.09.23-.219.472-.418.718-.61-30.171-11.898-64.574-21.554-101.097-21.554-39.004 0-75.59 11.016-107.188 24.008 1.461.449 2.719.98 2.551 1.433M783.04 295.492c-10.169-1.414-25.2-8.699-43.966-17.914.582 1.328 1.102 2.555 1.371 3.297.317.871.457 1.922.508 2.965l1.29.281-1.263.797c.004 1.379-.105 2.625-.105 3.273 0 1.293 2.367 4.305 2.367 5.38 0 1.077-.644 2.8-1.078 4.523-.09.36-.238.844-.426 1.386.688-.226 1.2-.261.957.29-.28.636-1 1.203-1.675 1.625-.668 1.656-1.477 3.386-2.082 4.23-1.075 1.508-1.29 2.586-3.446 3.445-.613.246-1.375.493-2.18.715.606.399 1.223.856 1.223 1.078 0 .446-5.316.297-5.316-.148 0-.012.011-.027.015-.043-.504.07-.949.117-1.273.117-1.406 0-3.379.008-5.734.535.32.02.625.02.914-.008 2.093-.218-2.746 1.989-3.93.641l-.05-.055c-2.49.305-5.74.297-8.153-1.011.004.027.004.054.008.082-.313-.098-.614-.168-.907-.243-.468.817-1.007 1.57-1.254 1.227-.293-.406-.44-1.398-.507-2.094-.04-.039-.078-.07-.114-.113-.488-.566-1.191-.95-1.804-1.406a.4.4 0 0 0-.22-.055c.048.356.052.676-.034.836-.278.523-1.696-.086-1.696-.086l.086-.363a.6.6 0 0 0-.113.137c-.457.73-.883 1.476-1.351 2.19-.625.954-1.239 1.923-1.926 2.825-.485.629-.66 1.332-.781 2.067-.235 1.43-.235 2.878-.18 4.32.043 1.316.164 2.629.262 3.945.043.613.086 1.23.136 1.84h88.88v-30.129c-2.434.5-6.454-.379-6.454-.379"/><path fill="#009ddc" d="M453.691 318.676c.125-1.965-.226-3.79-.152-5.75.07-1.762-.059-3.387-.676-5.043-2.558 1.832-4.644 2.914-7.86 3.137-.058.003-.12 0-.179.003-.594.489-1.465 1.09-2.18 1.149a4 4 0 0 1-.472.012c.05.449.137.753.234.753 0 0-1.969.372-1.781-.937.047-.324.207-.734.414-1.152-.324-.051-.648-.106-.969-.176-.656-.145-1.375-.512-2.05-.512-.844.004-1.743.5-2.594.617-5.262.72-10.805-.75-14.801-4.136-.785-.04-2.992-.63-3.895-1.536 0 0 .832-.707 2-.375-3.414-4.101-3.652-9.656-2.925-14.785-.914.692-1.72 1.04-1.72 1.04.27-1.294.665-2.165 1.103-2.75-.989.413-2.032.202-2.032.202.543-1.363 1.852-1.597 2.676-1.605-.2-.7-.492-1.394-.672-2.023a14.7 14.7 0 0 1-.496-2.739c-14.512 7.02-26.312 12.246-34.762 13.422 0 0-4.015.88-6.453.38v30.132h79.594c.289-2.422.484-4.844.648-7.328M620.504 308.93c-.766 1.175-1.48 2.402-1.79 3.785 1.188-.918 2.098-2.121 2.985-3.32 0 0-1.57.59-1.336-.172.028-.082.074-.184.14-.293M696.3 307.227c.2.293.395.586.598.882.125-.242.239-.468.356-.703-.02 0-.563-.008-.953-.18M695.922 306.668c.004.004.004.008.008.012v-.012zM378.855 369.031c.313.153 1.868 1.035 4.985 1.035 4.828 0 6.23-1.714 6.23-5.242v-8.828c0-3.637-2.129-5.195-4.984-5.195-3.117 0-6.23 1.922-6.23 4.676Zm16.668-3.43c0 5.504-4.05 8.618-11.578 8.618-4.363 0-6.597-1.555-10.543-1.867v-37.907c.313 0 5.453-.05 5.453 3.48v7.27c0 2.438-.468 3.895-.468 3.895s2.078-2.442 7.375-2.442c5.242 0 9.761 3.22 9.761 8.567ZM402.531 334.344c.313 0 5.453.05 5.453 2.96v27.259c0 2.96.465 7.738 3.688 7.738-1.246 1.398-2.547 1.66-3.688 1.66-3.738 0-5.453-3.582-5.453-7.734ZM421.484 365.29c0 2.96 1.454 4.675 5.606 4.675 3.223 0 5.61-.883 5.61-.883v-22.176s5.452 0 5.452 2.961v24.2c-.625-.313-2.183-.934-4.05-.934-2.493 0-4.829 1.09-7.739 1.09-5.035 0-10.332-1.715-10.332-8.157v-19.16s5.453.055 5.453 2.961ZM450.871 357.813c.262.105 2.754.726 4.621.726 4.363 0 5.867-1.348 5.867-3.687 0-2.387-1.402-4.051-5.242-4.051-4.156 0-5.246 1.976-5.246 5.351Zm16.254 10.539c0 3.691-4.57 5.867-10.125 5.867-7.219 0-11.582-3.27-11.582-8.719v-10.125c0-5.457 3.793-8.727 10.8-8.727 7.012 0 10.594 3.27 10.594 8.204 0 4.312-2.75 8.101-10.644 8.101-1.715 0-3.895-.312-5.297-1.09v2.856c0 3.375 1.766 5.086 6.129 5.086 4.984 0 8.617-2.02 8.672-5.395.984 1.453 1.453 2.75 1.453 3.942M475.95 341.457c0-5.453 5.866-8.727 11.788-8.727 5.14 0 9.555 1.665 9.555 4.934 0 1.3-.676 2.441-1.922 3.582 0-2.8-3.844-4.101-7.531-4.101-3.477 0-6.438 1.921-6.438 5.296v5.817h9.555s-.05 4.363-3.219 4.363h-6.336v21.34s-5.453 0-5.453-2.957ZM512.867 356.152c0-3.375-1.09-5.351-6.437-5.351-5.297 0-6.387 1.976-6.387 5.351v8.567c0 3.375 1.09 5.347 6.387 5.347 5.347 0 6.437-1.972 6.437-5.347Zm5.453 9.348c0 5.45-3.789 8.719-11.89 8.719-8.047 0-11.84-3.27-11.84-8.719v-10.125c0-5.453 3.793-8.727 11.84-8.727 8.101 0 11.89 3.274 11.89 8.727ZM531.04 351.844v22.117s-5.45 0-5.45-3.012v-24.144c1.347.675 2.543.933 3.582.933 2.23 0 4.258-1.09 7.219-1.09 3.632 0 6.539 1.348 6.539 4.516 0 1.922-1.192 3.43-1.918 4.414 0-3.062-2.547-4.465-5.559-4.465-2.23 0-4.414.73-4.414.73M551.238 357.813c.262.105 2.754.726 4.621.726 4.364 0 5.868-1.348 5.868-3.687 0-2.387-1.403-4.051-5.243-4.051-4.156 0-5.246 1.976-5.246 5.351Zm16.254 10.539c0 3.691-4.57 5.867-10.125 5.867-7.219 0-11.582-3.27-11.582-8.719v-10.125c0-5.457 3.793-8.727 10.8-8.727 7.013 0 10.595 3.27 10.595 8.204 0 4.312-2.754 8.101-10.645 8.101-1.715 0-3.894-.312-5.297-1.09v2.856c0 3.375 1.766 5.086 6.13 5.086 4.984 0 8.616-2.02 8.671-5.395.984 1.453 1.453 2.75 1.453 3.942M583.586 346.543c5.922 0 10.02 1.61 10.02 5.144 0 1.247-.516 2.75-1.762 4.461 0-3.375-3.223-5.086-7.996-5.086-4.106 0-5.61 1.141-5.61 3.739 0 5.453 16.668-.985 16.668 11.265 0 4.989-3.687 8.157-11.32 8.157-6.129 0-10.594-1.77-10.594-5.403 0-1.297.574-2.754 2.028-4.515.101 4.101 4.046 5.504 8.566 5.504 3.27 0 5.766-1.297 5.766-4 0-6.493-16.668.257-16.668-10.852 0-5.559 3.789-8.414 10.902-8.414M601.137 341.664c1.191 0 5.449.106 5.449 4.621v1.973h10.7s-.052 4.363-3.22 4.363h-7.48v11.422c0 3.586 1.144 5.816 5.144 5.816 3.32 0 6.383-1.609 6.383-5.453 1.196 1.508 1.82 2.86 1.82 4.207 0 3.375-3.636 5.61-8.878 5.61-6.18 0-9.918-3.22-9.918-8.723ZM626.578 355.219c0-5.196 3.27-7.895 9.555-7.895 4.62 0 9.086 1.297 9.086 4.985 0 1.09-.414 2.336-1.246 3.843.05-.261.05-.574.05-.832 0-3.117-2.18-5.297-7.89-5.297-5.086 0-6.7 1.82-6.7 4.934 0 7.531 16.72-.418 16.72 11.629 0 4.469-3.376 7.637-10.02 7.637-4.52 0-9.45-1.094-9.45-5.246 0-.934.258-1.973.778-3.22 0 3.274 2.547 5.766 8.672 5.766 5.66 0 7.168-2.445 7.168-5.195 0-8.258-16.461-.52-16.723-11.11M653.422 341.145s2.855.054 2.855 2.285v5.14h10.856s-.055 2.805-1.926 2.805h-8.93v13.758c0 3.898 2.13 6.285 6.285 6.285 3.375 0 6.282-2.129 6.282-5.297.676 1.246.933 2.18.933 3.117 0 3.375-3.53 4.98-7.265 4.98-4.989 0-9.09-2.695-9.09-7.788ZM678.086 365.707c0 2.488.621 5.863 6.957 5.863 4.363 0 6.855-1.297 6.855-1.297v-22.687s2.86 0 2.86 2.281v23.988c-.938-.414-1.82-.515-2.809-.515-1.922 0-4.62.883-7.11.883-4.26 0-9.609-1.614-9.609-7.48v-19.157s2.856.05 2.856 2.281ZM719.727 355.477c0-3.223-3.786-5.399-7.528-5.399-3.582 0-6.281 1.817-6.281 5.918v9.55c0 4 1.816 5.977 7.531 5.977 3.84 0 6.278-1.246 6.278-1.246Zm0-20.305c.472 0 2.859-.05 2.859 2.754v35.933a7.6 7.6 0 0 0-2.754-.523c-2.125 0-4.723.883-7.32.883-5.973 0-9.453-3.114-9.453-7.89v-11.114c0-4.93 3.898-7.84 8.468-7.84 7.266 0 8.774 3.219 8.774 3.219s-.574-.985-.574-5.45ZM731.41 347.586c.313 0 2.856.101 2.856 2.281v24.094s-2.856 0-2.856-2.281Zm-.207-9.035h2.7c.468 0 .574.414.574.722v2.86h-2.704c-.308 0-.57-.363-.57-.676ZM760.852 356.152c0-3.843-1.301-6.129-7.688-6.129-6.434 0-7.734 2.286-7.734 6.13v9.242c0 3.894 1.3 6.18 7.734 6.18 6.387 0 7.688-2.286 7.688-6.18Zm2.855 10.02c0 5.09-3.375 8.047-10.543 8.047-7.215 0-10.59-2.957-10.59-8.047v-10.797c0-5.04 3.375-8.05 10.59-8.05 7.168 0 10.543 3.01 10.543 8.05ZM770.457 355.219c0-5.196 3.27-7.895 9.555-7.895 4.62 0 9.086 1.297 9.086 4.985 0 1.09-.414 2.336-1.246 3.843.05-.261.05-.574.05-.832 0-3.117-2.18-5.297-7.89-5.297-5.09 0-6.7 1.82-6.7 4.934 0 7.531 16.72-.418 16.72 11.629 0 4.469-3.376 7.637-10.02 7.637-4.52 0-9.45-1.094-9.45-5.246 0-.934.258-1.973.778-3.22 0 3.274 2.543 5.766 8.672 5.766 5.66 0 7.164-2.445 7.164-5.195 0-8.258-16.457-.52-16.719-11.11"/></svg>